<?xml version="1.0" standalone="no"?><!DOCTYPE svg PUBLIC "-//W3C//DTD SVG 1.1//EN" "http://www.w3.org/Graphics/SVG/1.1/DTD/svg11.dtd"><svg t="1591249523175" class="icon" viewBox="0 0 1024 1024" version="1.1" xmlns="http://www.w3.org/2000/svg" p-id="14682" xmlns:xlink="http://www.w3.org/1999/xlink" width="200" height="200"><defs><style type="text/css"></style></defs><path d="M514.40128 340.50048c47.5392 0 92.17024 18.54464 125.7984 52.06528 33.63328 33.63328 52.06528 78.2592 52.06528 125.7984s-18.53952 92.17024-52.06528 125.7984c-33.63328 33.63328-78.2592 52.06528-125.7984 52.06528s-92.17024-18.53952-125.7984-52.06528c-33.63328-33.63328-52.06528-78.2592-52.06528-125.7984s18.53952-92.17024 52.06528-125.7984c33.52064-33.62816 78.2592-52.06528 125.7984-52.06528m0-64.68096c-133.99552 0-242.54464 108.55424-242.54464 242.54464s108.55424 242.54464 242.54464 242.54464 242.54464-108.55424 242.54464-242.54464-108.55424-242.54464-242.54464-242.54464z" p-id="14683"></path><path d="M809.20576 842.30656a31.87712 31.87712 0 0 1-22.85056-9.48736l-119.76192-119.6544a32.33792 32.33792 0 0 1 0-45.70624 32.33792 32.33792 0 0 1 45.70624 0l119.6544 119.6544a32.33792 32.33792 0 0 1-22.74816 55.1936z" p-id="14684"></path><path d="M142.4896 934.50752c-36.33152 0-65.88928-29.56288-65.88928-65.8944V155.38176c0-36.33152 29.55776-65.8944 65.88928-65.8944h738.44224c36.33152 0 65.8944 29.56288 65.8944 65.8944v505.46688l0.04608-0.00512c0.35328 1.98144 0.52736 3.80928 0.52736 5.58592a31.41632 31.41632 0 0 1-31.38048 31.38048c-16.45056 0-30.1824-12.86656-31.27296-29.29152l-0.18944-2.9184h-0.19968l-0.29184-3.13344v-472.576c0-20.75648-16.88576-37.63712-37.64224-37.63712H177.00352c-20.75136 0-37.64224 16.88064-37.64224 37.63712V834.0992c0 20.75648 16.88576 37.63712 37.64224 37.63712h407.32672a31.41632 31.41632 0 0 1 31.38048 31.3856c0 17.3056-14.07488 31.3856-31.38048 31.3856H142.4896z" p-id="14685"></path></svg>