<?xml version="1.0" standalone="no"?><!DOCTYPE svg PUBLIC "-//W3C//DTD SVG 1.1//EN" "http://www.w3.org/Graphics/SVG/1.1/DTD/svg11.dtd"><svg t="1594178577759" class="icon" viewBox="0 0 1024 1024" version="1.1" xmlns="http://www.w3.org/2000/svg" p-id="18833" xmlns:xlink="http://www.w3.org/1999/xlink" width="200" height="200"><defs><style type="text/css"></style></defs><path d="M512 130.24c287.616 0 464.448 260.8 465.472 375.488v13.76c-1.024 115.2-177.792 376.064-465.472 376.064-284.8 0-465.472-264.384-465.472-376V506.24C46.528 394.688 227.2 130.24 512 130.24z m0 199.744a183.104 183.104 0 0 0-182.912 182.976A183.104 183.104 0 0 0 512 695.808a183.104 183.104 0 0 0 182.912-182.848A183.104 183.104 0 0 0 512 329.984z" p-id="18834"></path></svg>