<?xml version="1.0" standalone="no"?><!DOCTYPE svg PUBLIC "-//W3C//DTD SVG 1.1//EN" "http://www.w3.org/Graphics/SVG/1.1/DTD/svg11.dtd"><svg t="1597715197550" class="icon" viewBox="0 0 1024 1024" version="1.1" xmlns="http://www.w3.org/2000/svg" p-id="16533" xmlns:xlink="http://www.w3.org/1999/xlink" width="200" height="200"><defs><style type="text/css"></style></defs><path d="M690.4 320.9h203.9L639.4 66v203.9c0 28.1 22.9 51 51 51z" p-id="16534"></path><path d="M604.1 363.2a127.38 127.38 0 0 1-37.3-90.1V66H257.1c-33.8 0-66.2 13.4-90.1 37.3a127.38 127.38 0 0 0-37.3 90.1v637.1c0 33.8 13.4 66.2 37.3 90.1 23.9 23.9 56.3 37.3 90.1 37.3h509.7c33.8 0 66.2-13.4 90.1-37.3 23.9-23.9 37.3-56.3 37.3-90.1v-430h-200c-33.8 0-66.2-13.4-90.1-37.3z m162.8 294.7c0 7.2-3.3 14-8.9 18.5v-2.5L556.6 842.7c-7.8 6.4-18.5 8-27.8 4.1-9.3-3.9-15.8-12.5-16.8-22.6V721.7H289c-17.6 0-31.9-14.3-31.9-31.9v-63.7c0-17.6 14.3-31.9 31.9-31.9h223V491.7c1-10 7.5-18.7 16.8-22.6 9.3-3.9 20-2.3 27.8 4.1l201.3 166.3c5.7 4.4 9 11.2 9 18.4z" p-id="16535"></path></svg>