<?xml version="1.0" standalone="no"?><!DOCTYPE svg PUBLIC "-//W3C//DTD SVG 1.1//EN" "http://www.w3.org/Graphics/SVG/1.1/DTD/svg11.dtd"><svg t="1594178586353" class="icon" viewBox="0 0 1024 1024" version="1.1" xmlns="http://www.w3.org/2000/svg" p-id="18957" xmlns:xlink="http://www.w3.org/1999/xlink" width="200" height="200"><defs><style type="text/css"></style></defs><path d="M194.048 256.192L355.712 417.92a181.824 181.824 0 0 0-26.624 95.04A183.104 183.104 0 0 0 512 695.808c34.816 0 67.328-9.792 94.976-26.624l154.112 153.984A465.472 465.472 0 0 1 512 895.552c-284.8 0-465.472-264.384-465.472-376V506.24c0-60.544 53.248-166.208 147.52-250.112zM512 130.24c287.616 0 464.448 260.8 465.472 375.488v13.76c-0.512 55.488-41.792 144.768-116.544 222.464l-174.4-174.336a183.104 183.104 0 0 0-229.248-229.248l-156.16-156.16A456.064 456.064 0 0 1 512 130.176z" p-id="18958"></path><path d="M159.333911 172.588745m22.627417-22.627417l0 0q22.627417-22.627417 45.254834 0l678.82251 678.82251q22.627417 22.627417 0 45.254834l0 0q-22.627417 22.627417-45.254834 0l-678.82251-678.82251q-22.627417-22.627417 0-45.254834Z" p-id="18959"></path></svg>