<?xml version="1.0" standalone="no"?><!DOCTYPE svg PUBLIC "-//W3C//DTD SVG 1.1//EN" "http://www.w3.org/Graphics/SVG/1.1/DTD/svg11.dtd"><svg t="1592875482383" class="icon" viewBox="0 0 1024 1024" version="1.1" xmlns="http://www.w3.org/2000/svg" p-id="15250" xmlns:xlink="http://www.w3.org/1999/xlink" width="200" height="200"><defs><style type="text/css"></style></defs><path d="M899.98 359.12c-6.3-2.73-61.11-29.09-59.79-111.73 0.36-22.28-11.4-43.03-30.71-54.16L640.05 95.5c-22.37-12.83-50.26-10.5-69.99 6-2.4 2.01-59.13 48.07-116.95 0-19.79-16.49-47.8-18.83-69.99-6l-169.37 97.73c-22.91 13.22-34.67 40.24-29.33 66.15 4.98 24.11 9.84 81.84-52.18 96.8-27.59 6.66-47.02 31.34-47.02 59.7V611.4c0 27.05 18.95 51.28 44.8 59.13 14.81 4.47 62.31 25.13 53.44 103.28-2.82 24.29 9.12 47.92 30.29 60.15l169.37 97.79c22.19 12.8 50.92 10.02 70.65-6.54 13.79-11.64 63.09-45.91 115.15-0.45 11.46 10.05 25.91 15.2 40.42 15.2 10.56 0 21.11-2.7 30.71-8.22l169.43-97.79c22.01-12.74 33.95-37.72 29.93-62.88-0.54-3.33-12.29-82.14 53.62-100.52 26.57-7.41 44.92-31.61 44.92-59.16V415.88c0-24.41-15.6-46.99-37.97-56.76zM687.67 566.99c-7.44 24.35-33.05 38.11-57.46 30.71-24.35-7.38-38.08-33.11-30.71-57.46 2.58-8.52 3.9-17.45 3.9-26.6 0-50.62-41.2-91.79-91.82-91.79s-91.76 41.17-91.76 91.79c0 50.62 41.14 91.79 91.76 91.79 13.73 0 26.87-2.94 39.22-8.73 22.91-10.95 50.44-0.96 61.29 22.01 10.86 23 0.96 50.47-22.07 61.29-24.65 11.64-51.04 17.54-78.45 17.54-101.42 0-183.88-82.49-183.88-183.91s82.46-183.91 183.88-183.91 183.94 82.49 183.94 183.91c0.02 18.21-2.62 36.14-7.84 53.36z" p-id="15251"></path></svg>