<?xml version="1.0" standalone="no"?><!DOCTYPE svg PUBLIC "-//W3C//DTD SVG 1.1//EN" "http://www.w3.org/Graphics/SVG/1.1/DTD/svg11.dtd"><svg t="1597630177234" class="icon" viewBox="0 0 1024 1024" version="1.1" xmlns="http://www.w3.org/2000/svg" p-id="32313" xmlns:xlink="http://www.w3.org/1999/xlink" width="200" height="200"><defs><style type="text/css"></style></defs><path d="M402.76 960c-7.01 0-13.96-1.8-20.16-5.23L193.05 845.28c-13.29-7.46-21.12-23.03-19.41-38.7 12.35-109.35-58.86-140.38-80.98-147.3-16.29-4.08-28.45-20.08-28.45-37.9V402.62c0-18.55 12.48-34.46 30.36-38.7 30.6-7.43 53.12-22.76 66.91-45.58 25.58-42.38 13.15-95.93 13.02-96.47-4.24-17.02 3.44-34.79 18.68-43.24L382.47 69.31c6.33-3.51 13.2-5.31 20.05-5.31 9.31 0 18.39 3.38 25.5 9.56 24.8 20.67 51.96 31.22 80.63 31.19 39.38 0 71.32-19.33 86.83-30.87 7.62-6.5 16.64-9.88 25.87-9.88 6.82 0 13.58 1.85 19.54 5.34l190.03 109.38c13.04 7.78 20.29 20.83 19.49 34.92-1.91 116.06 82.96 151.52 83.82 151.84 15.41 5.99 25.55 20.86 25.55 37.15v218.75c0 17.82-12.16 33.82-28.91 38.03-99.58 27.91-80.95 143.65-80.68 144.81 2.66 16.8-4.94 32.64-19.19 41.04L640.84 954.69c-5.88 3.36-12.59 5.1-19.46 5.1-9.07 0-18.2-3.22-25.71-9.05-25.39-22.28-52.53-33.42-81.03-33.42-48.53 0-85.19 32.42-85.51 32.75-7.56 6.55-16.76 9.93-26.37 9.93z m-3.04-86.83c22.41-14.09 64.02-34.62 115.87-34.62 38.76 0 75.37 11.6 108.89 34.52l145.18-83.58c-2.36-71.32 25.61-157.93 110.93-195.56V426.57c-33.66-21.15-102.18-77.73-108.49-190.46l-148.6-85.39c-22.44 13.29-64.07 32.69-115.36 32.69-38.41 0-74.67-10.95-107.85-32.58l-144.38 82.88c6.01 73.06-20.53 161.1-112.52 197.9v162.6c32.37 16.37 113.91 70.19 110.88 194.6l145.45 84.36z" p-id="32314"></path><path d="M511.96 689.93c-98.1 0-177.9-79.82-177.9-177.93s79.8-177.93 177.9-177.93c98.13 0 177.98 79.82 177.98 177.93 0 17.55-2.55 34.92-7.62 51.61-4.97 16.56-20.53 28.13-37.82 28.13-3.89 0-7.78-0.59-11.51-1.77-10.07-3.03-18.39-9.85-23.38-19.16-4.99-9.31-6.04-20.02-2.98-30.12a98.937 98.937 0 0 0 4.24-28.67c0-54.51-44.37-98.85-98.91-98.85-54.49 0-98.8 44.34-98.8 98.85 0 54.49 44.31 98.83 98.8 98.83 14.87 0 29.07-3.17 42.14-9.37 5.42-2.52 11.09-3.78 16.94-3.78 15.41 0 29.12 8.67 35.75 22.6 9.31 19.73 0.86 43.35-18.82 52.69-23.89 11.25-49.44 16.94-76.01 16.94z" p-id="32315"></path></svg>