<?xml version="1.0" standalone="no"?><!DOCTYPE svg PUBLIC "-//W3C//DTD SVG 1.1//EN" "http://www.w3.org/Graphics/SVG/1.1/DTD/svg11.dtd"><svg t="1590399201407" class="icon" viewBox="0 0 1024 1024" version="1.1" xmlns="http://www.w3.org/2000/svg" p-id="23154" xmlns:xlink="http://www.w3.org/1999/xlink" width="20" height="20"><defs><style type="text/css"></style></defs><path d="M458.934 948.083c-14.367-14.495-14.367-38.378 0-52.873L870.11 512.195 458.934 128.797c-14.367-14.496-14.367-37.995 0-52.874 14.368-14.56 37.676-14.56 51.98 0l437.613 407.6c7.663 7.79 10.983 18.263 10.409 28.672 0.574 10.025-2.746 20.498-10.41 28.288l-437.612 407.6c-14.304 14.56-37.612 14.56-51.98 0z m-383.142 0c-14.368-14.495-14.368-38.378 0-52.873l411.176-383.015L75.792 128.797c-14.368-14.496-14.368-37.995 0-52.874 14.368-14.56 37.675-14.56 51.98 0l437.612 407.6c7.663 7.79 10.984 18.263 10.409 28.672 0.575 10.025-2.746 20.498-10.409 28.288l-437.613 407.6c-14.304 14.56-37.611 14.56-51.98 0z" p-id="23155"></path></svg>