<?xml version="1.0" standalone="no"?><!DOCTYPE svg PUBLIC "-//W3C//DTD SVG 1.1//EN" "http://www.w3.org/Graphics/SVG/1.1/DTD/svg11.dtd"><svg t="1590399385103" class="icon" viewBox="0 0 1024 1024" version="1.1" xmlns="http://www.w3.org/2000/svg" p-id="10016" xmlns:xlink="http://www.w3.org/1999/xlink" width="20" height="20"><defs><style type="text/css"></style></defs><path d="M565.066 75.917c14.367 14.495 14.367 38.378 0 52.873L153.89 511.805 565.066 895.203c14.36700001 14.496 14.367 37.99500001 0 52.874-14.368 14.56-37.676 14.56-51.98000001 0l-437.61299999-407.6c-7.663-7.79-10.983-18.263-10.409-28.672-0.574-10.025 2.746-20.498 10.41-28.28799999l437.61199999-407.60000001c14.304-14.56 37.612-14.56 51.98000001 0z m383.142 0c14.368 14.495 14.368 38.378 0 52.873l-411.176 383.015L948.208 895.203c14.368 14.496 14.368 37.995 0 52.874-14.368 14.56-37.67500001 14.56-51.98 0l-437.612-407.6c-7.663-7.79-10.984-18.263-10.409-28.672-0.575-10.025 2.746-20.498 10.409-28.288l437.613-407.6c14.304-14.56 37.611-14.56 51.97999999 0z" p-id="10017"></path></svg>