<?xml version="1.0" standalone="no"?><!DOCTYPE svg PUBLIC "-//W3C//DTD SVG 1.1//EN" "http://www.w3.org/Graphics/SVG/1.1/DTD/svg11.dtd"><svg t="1598599888849" class="icon" viewBox="0 0 1024 1024" version="1.1" xmlns="http://www.w3.org/2000/svg" p-id="16358" xmlns:xlink="http://www.w3.org/1999/xlink" width="200" height="200"><defs><style type="text/css"></style></defs><path d="M480 128l16.128 0.32 15.872 0.896v382.72L894.848 512l0.896 15.872L896 544l-0.256 14.912A416 416 0 0 1 480 960.064l-14.912-0.256A416 416 0 0 1 480 128z m-31.936 65.408l-14.464 1.6A352.064 352.064 0 0 0 480 896.064l14.784-0.32A352.192 352.192 0 0 0 830.592 576H448l0.064-382.592z m128-129.408C791.232 80.192 960 231.552 960 415.872c0 10.88-0.64 21.568-1.728 32.128H576V64z" p-id="16359"></path></svg>