<?xml version="1.0" standalone="no"?><!DOCTYPE svg PUBLIC "-//W3C//DTD SVG 1.1//EN" "http://www.w3.org/Graphics/SVG/1.1/DTD/svg11.dtd"><svg t="1595470342003" class="icon" viewBox="0 0 1024 1024" version="1.1" xmlns="http://www.w3.org/2000/svg" p-id="15363" xmlns:xlink="http://www.w3.org/1999/xlink" width="200" height="200"><defs><style type="text/css"></style></defs><path d="M512 65C265.192 65 65 265.192 65 512c0 246.807 200.192 447 447 447 246.807 0 447-200.193 447-447 0-246.808-200.193-447-447-447z m-2.874 759.772c-36.398 0-65.964-28.928-65.964-64.624 0-35.632 29.502-64.623 65.964-64.623 36.399 0 65.964 28.991 65.964 64.623 0 35.696-29.502 64.624-65.964 64.624z m177.14-365.71c-12.963 20.37-40.358 48.02-82.504 83.014-21.775 18.136-35.377 32.695-40.613 43.806-5.236 10.984-7.663 30.716-7.152 59.196h-93.934c-0.191-13.474-0.383-21.712-0.383-24.649 0-30.46 4.981-55.428 15.07-75.032 10.09-19.604 30.205-41.699 60.346-66.156 30.076-24.585 48.148-40.613 54.023-48.212 9.067-12.005 13.665-25.288 13.665-39.655 0-20.052-8.11-37.23-24.138-51.597-16.028-14.304-37.803-21.456-65.07-21.456-26.31 0-48.276 7.471-65.965 22.35-17.688 14.943-32.886 47.829-36.462 68.136-3.385 19.22-95.977 27.33-94.828-11.622 1.086-38.89 21.328-81.163 56.067-111.75 34.738-30.652 80.396-45.977 136.782-45.977 59.387 0 106.577 15.517 141.698 46.551 35.186 31.035 52.619 67.114 52.619 108.302 0.127 22.86-6.386 44.445-19.221 64.751z" p-id="15364"></path></svg>