<?xml version="1.0" standalone="no"?><!DOCTYPE svg PUBLIC "-//W3C//DTD SVG 1.1//EN" "http://www.w3.org/Graphics/SVG/1.1/DTD/svg11.dtd"><svg t="1598599832316" class="icon" viewBox="0 0 1024 1024" version="1.1" xmlns="http://www.w3.org/2000/svg" p-id="16090" xmlns:xlink="http://www.w3.org/1999/xlink" width="200" height="200"><defs><style type="text/css"></style></defs><path d="M96 64a32 32 0 0 1 32 32V896h800a32 32 0 1 1 0 64h-832a32 32 0 0 1-32-32v-832a32 32 0 0 1 32-32z m256 384a32 32 0 0 1 32 32v256a32 32 0 1 1-64 0v-256a32 32 0 0 1 32-32z m192-256a32 32 0 0 1 32 32v512a32 32 0 1 1-64 0v-512a32 32 0 0 1 32-32z m192 128a32 32 0 0 1 32 32v384a32 32 0 1 1-64 0v-384a32 32 0 0 1 32-32z" p-id="16091"></path></svg>