<?xml version="1.0" standalone="no"?><!DOCTYPE svg PUBLIC "-//W3C//DTD SVG 1.1//EN" "http://www.w3.org/Graphics/SVG/1.1/DTD/svg11.dtd"><svg t="1598518017367" class="icon" viewBox="0 0 1024 1024" version="1.1" xmlns="http://www.w3.org/2000/svg" p-id="16104" xmlns:xlink="http://www.w3.org/1999/xlink" width="200" height="200"><defs><style type="text/css"></style></defs><path d="M480 127.999l16.096 0.296 15.904 0.92v382.69l382.848 0.065 0.864 15.903 0.288 16.094-0.263 14.92c-7.68 217.883-182.92 393.168-400.816 400.85L480 960l-14.921-0.263C242.23 951.88 64 768.716 64 543.967 64 314.225 250.24 128 480 128z m-24.001 56.789l-5.526 0.404C265.453 200.208 120 355.094 120 543.967c0 192.073 150.708 349.807 341.266 359.555l5.449 0.235 13.285 0.234 13.286-0.234 5.306-0.228C680.716 894.28 827.169 749.57 839.2 568.181l0.013-0.221-327.222-0.054c-30.615-0.005-55.49-24.577-55.983-55.074l-0.008-0.926-0.001-327.118zM576.006 64C791.288 80.206 960 263.664 960 447.971l-383.998-0.028L576.006 64z m55.999 65.639l-0.003 262.307 265.78 0.019-0.152-0.696c-12.435-55.952-42.679-111.034-87.199-157.373l-1.812-1.874c-48.396-49.685-109.525-85.366-176.007-102.231l-0.607-0.152z" p-id="16105"></path></svg>