<?xml version="1.0" standalone="no"?><!DOCTYPE svg PUBLIC "-//W3C//DTD SVG 1.1//EN" "http://www.w3.org/Graphics/SVG/1.1/DTD/svg11.dtd"><svg t="1598599865067" class="icon" viewBox="0 0 1024 1024" version="1.1" xmlns="http://www.w3.org/2000/svg" p-id="16224" xmlns:xlink="http://www.w3.org/1999/xlink" width="200" height="200"><defs><style type="text/css"></style></defs><path d="M96 64a32 32 0 0 1 32 32V896h800a32 32 0 1 1 0 64h-832a32 32 0 0 1-32-32v-832a32 32 0 0 1 32-32z m782.528 195.456a32.064 32.064 0 0 1 13.952 43.136l-192 375.04a32.32 32.32 0 0 1-26.048 17.344 32.32 32.32 0 0 1-28.416-13.248L452.544 413.056 316.416 677.76a32 32 0 1 1-56.896-29.312l160-311.04a31.936 31.936 0 0 1 54.4-4.032l193.408 268.544 168.128-328.448a32.192 32.192 0 0 1 43.072-13.952z" p-id="16225"></path></svg>