<?xml version="1.0" standalone="no"?><!DOCTYPE svg PUBLIC "-//W3C//DTD SVG 1.1//EN" "http://www.w3.org/Graphics/SVG/1.1/DTD/svg11.dtd"><svg t="1591250218056" class="icon" viewBox="0 0 1024 1024" version="1.1" xmlns="http://www.w3.org/2000/svg" p-id="38146" xmlns:xlink="http://www.w3.org/1999/xlink" width="20" height="20"><defs><style type="text/css"></style></defs><path d="M825.6 928H198.4c-56 0-102.4-41.6-102.4-91.2V187.2c0-49.6 46.4-91.2 102.4-91.2h628.8c56 0 102.4 41.6 102.4 91.2v649.6c-1.6 49.6-48 91.2-104 91.2z m-627.2-768c-20.8 0-38.4 12.8-38.4 27.2v649.6c0 14.4 17.6 27.2 38.4 27.2h628.8c20.8 0 38.4-12.8 38.4-27.2V187.2c0-14.4-17.6-27.2-38.4-27.2H198.4z m537.6 384A32.064 32.064 0 0 1 704 512V416H608A32.064 32.064 0 0 1 576 384c0-17.6 14.4-32 32-32h128c17.6 0 32 14.4 32 32v128c0 17.6-14.4 32-32 32zM512 640a31.616 31.616 0 0 1-22.4-9.6l-89.6-89.6-89.6 89.6c-12.8 12.8-32 12.8-44.8 0-12.8-12.8-12.8-32 0-44.8L377.6 473.6c12.8-12.8 32-12.8 44.8 0L512 563.2l201.6-201.6c12.8-12.8 32-12.8 44.8 0 12.8 12.8 12.8 32 0 44.8l-224 224c-6.4 6.4-14.4 9.6-22.4 9.6z" p-id="38147"></path></svg>