<?xml version="1.0" standalone="no"?><!DOCTYPE svg PUBLIC "-//W3C//DTD SVG 1.1//EN" "http://www.w3.org/Graphics/SVG/1.1/DTD/svg11.dtd"><svg t="1591250230302" class="icon" viewBox="0 0 1024 1024" version="1.1" xmlns="http://www.w3.org/2000/svg" p-id="38384" xmlns:xlink="http://www.w3.org/1999/xlink" width="20" height="20"><defs><style type="text/css"></style></defs><path d="M419.2 116.672a248.192 248.192 0 0 0-247.872 247.936v437.184c0 58.24 47.36 105.472 105.472 105.472h329.088a247.04 247.04 0 0 0 246.72-246.72V222.08c0-58.24-47.232-105.472-105.408-105.472H419.2zM605.952 960H276.8a158.336 158.336 0 0 1-158.208-158.208V364.608A300.928 300.928 0 0 1 419.2 64h328a158.336 158.336 0 0 1 158.208 158.08v438.4c0 165.184-134.4 299.52-299.52 299.52m79.36-570.688H367.36a26.368 26.368 0 0 1 0-52.672h318.016a26.304 26.304 0 0 1 0 52.672M575.744 538.368H367.36a26.368 26.368 0 0 1 0-52.736h208.448a26.304 26.304 0 0 1 0 52.736m-85.312 148.928H367.296a26.304 26.304 0 1 1 0-52.672h123.136a26.368 26.368 0 1 1 0 52.672" p-id="38385"></path></svg>