<?xml version="1.0" standalone="no"?><!DOCTYPE svg PUBLIC "-//W3C//DTD SVG 1.1//EN" "http://www.w3.org/Graphics/SVG/1.1/DTD/svg11.dtd"><svg t="1591250250968" class="icon" viewBox="0 0 1024 1024" version="1.1" xmlns="http://www.w3.org/2000/svg" p-id="38860" xmlns:xlink="http://www.w3.org/1999/xlink" width="20" height="20"><defs><style type="text/css"></style></defs><path d="M800.64 356.416a28.096 28.096 0 0 0-15.488 4.608L517.504 531.072l-278.4-185.216a28.544 28.544 0 1 0-31.616 47.552l296.128 196.992a28.8 28.8 0 0 0 31.296 0.256l281.216-181.632a28.608 28.608 0 0 0-15.488-52.608m102.272 399.936a61.12 61.12 0 0 1-60.48 61.632H181.568a61.12 61.12 0 0 1-60.48-61.632V267.648c0-33.984 27.136-61.632 60.48-61.632h660.864c33.344 0 60.48 27.648 60.48 61.632v488.704z m-60.48-607.424H181.568A118.336 118.336 0 0 0 64 267.648v488.704c0 65.472 52.736 118.72 117.568 118.72h660.864A118.336 118.336 0 0 0 960 756.352V267.648a118.336 118.336 0 0 0-117.568-118.72" p-id="38861"></path></svg>