<?xml version="1.0" standalone="no"?><!DOCTYPE svg PUBLIC "-//W3C//DTD SVG 1.1//EN" "http://www.w3.org/Graphics/SVG/1.1/DTD/svg11.dtd"><svg t="1591250225451" class="icon" viewBox="0 0 1024 1024" version="1.1" xmlns="http://www.w3.org/2000/svg" p-id="38265" xmlns:xlink="http://www.w3.org/1999/xlink" width="20" height="20"><defs><style type="text/css"></style></defs><path d="M779.136 328.512a384 384 0 0 1 61.568 494.464l0.576 0.32a28.224 28.224 0 0 0 0.128 27.584 26.88 26.88 0 0 0 37.76 8.832 29.376 29.376 0 0 0 7.808-7.04l0.64 0.448a438.784 438.784 0 0 0-70.4-565.12l-38.08 40.512zM627.136 233.28a392.192 392.192 0 0 0-507.136 375.232c0 73.792 20.608 145.92 59.328 207.616a29.44 29.44 0 0 1-7.104 43.52 26.624 26.624 0 0 1-39.36-12.16A445.952 445.952 0 0 1 64 608.512a448.256 448.256 0 0 1 579.584-428.8l-16.448 53.568z m-169.216 479.488c-57.408-32.512-34.56-71.168 6.08-122.624 40.64-51.456 331.712-430.08 331.712-430.08s-186.112 401.088-229.76 481.6c-43.648 80.576-49.92 103.936-108.032 71.04z" p-id="38266"></path></svg>