<?xml version="1.0" standalone="no"?><!DOCTYPE svg PUBLIC "-//W3C//DTD SVG 1.1//EN" "http://www.w3.org/Graphics/SVG/1.1/DTD/svg11.dtd"><svg t="1591250235236" class="icon" viewBox="0 0 1024 1024" version="1.1" xmlns="http://www.w3.org/2000/svg" p-id="38503" xmlns:xlink="http://www.w3.org/1999/xlink" width="20" height="20"><defs><style type="text/css"></style></defs><path d="M512 512C388.608 512 288 411.52 288 288S388.48 64 512 64c123.712 0 224 100.48 224 224S635.52 512 512 512z m0.064-384A160.32 160.32 0 0 0 352 288.064 160.192 160.192 0 0 0 512.064 448 160.128 160.128 0 0 0 672 288.064 160.192 160.192 0 0 0 512.064 128z m281.856 845.824H226.112A162.24 162.24 0 0 1 64 811.712v-50.816a162.24 162.24 0 0 1 162.112-162.112h567.808a162.24 162.24 0 0 1 162.112 162.112v50.816a162.24 162.24 0 0 1-162.112 162.112z m-567.808-310.208c-53.632 0-97.28 43.584-97.28 97.28v50.816c0 53.568 43.52 97.28 97.28 97.28h567.808c53.568 0 97.28-43.584 97.28-97.28v-50.816c0-53.568-43.584-97.28-97.28-97.28H226.112z" p-id="38504"></path></svg>