<?xml version="1.0" standalone="no"?><!DOCTYPE svg PUBLIC "-//W3C//DTD SVG 1.1//EN" "http://www.w3.org/Graphics/SVG/1.1/DTD/svg11.dtd"><svg t="1591250240142" class="icon" viewBox="0 0 1024 1024" version="1.1" xmlns="http://www.w3.org/2000/svg" p-id="38622" xmlns:xlink="http://www.w3.org/1999/xlink" width="20" height="20"><defs><style type="text/css"></style></defs><path d="M512 64c-62.592 0-121.536 24.384-165.76 68.672a232.96 232.96 0 0 0-68.736 165.76c0 62.528 24.448 121.472 68.672 165.76A233.024 233.024 0 0 0 512 532.864c62.592 0 121.472-24.32 165.76-68.608a233.024 233.024 0 0 0 68.736-165.76 232.96 232.96 0 0 0-68.736-165.76A233.216 233.216 0 0 0 512 64m0 56.128c47.616 0 92.416 18.56 126.08 52.288 33.792 33.728 52.288 78.464 52.288 126.08s-18.56 92.352-52.224 126.08A177.216 177.216 0 0 1 512 476.8c-47.68 0-92.48-18.56-126.144-52.352a177.088 177.088 0 0 1-52.288-126.08c0-47.488 18.56-92.224 52.288-125.952A177.088 177.088 0 0 1 512 120.128M876.928 960a28.224 28.224 0 0 1-28.16-28.16v-103.488a169.664 169.664 0 0 0-169.536-169.472H344.96a169.664 169.664 0 0 0-169.472 169.472v103.488a28.224 28.224 0 0 1-56.448 0v-103.488c0-60.288 23.488-116.992 66.176-159.68a224.448 224.448 0 0 1 159.744-66.24h334.272c60.224 0 116.992 23.552 159.744 66.176a224.512 224.512 0 0 1 66.112 159.744v103.488a27.84 27.84 0 0 1-28.096 28.16" p-id="38623"></path></svg>