<?xml version="1.0" standalone="no"?><!DOCTYPE svg PUBLIC "-//W3C//DTD SVG 1.1//EN" "http://www.w3.org/Graphics/SVG/1.1/DTD/svg11.dtd"><svg t="1591250245617" class="icon" viewBox="0 0 1024 1024" version="1.1" xmlns="http://www.w3.org/2000/svg" p-id="38741" xmlns:xlink="http://www.w3.org/1999/xlink" width="20" height="20"><defs><style type="text/css"></style></defs><path d="M743.04 501.632H528.064v-215.04a215.232 215.232 0 0 1 214.848-215.04 215.232 215.232 0 0 1 215.04 215.04 215.296 215.296 0 0 1-215.04 215.04zM591.808 437.76h151.04a151.36 151.36 0 0 0 151.168-151.232 151.424 151.424 0 0 0-151.168-151.168 151.232 151.232 0 0 0-151.04 151.168v151.232z m151.104 514.496a215.232 215.232 0 0 1-214.848-215.04V522.24h214.848a215.232 215.232 0 0 1 215.04 215.04 215.296 215.296 0 0 1-215.04 215.04zM592 586.112v151.168a151.296 151.296 0 0 0 150.976 151.296 151.36 151.36 0 0 0 151.168-151.168 151.424 151.424 0 0 0-151.04-151.296H591.808zM280.96 952.32a215.296 215.296 0 0 1-215.04-215.104 215.296 215.296 0 0 1 215.04-215.04H496v215.04a215.168 215.168 0 0 1-215.04 215.04z m0-366.208a151.36 151.36 0 0 0-151.232 151.168 151.488 151.488 0 0 0 151.232 151.296 151.488 151.488 0 0 0 151.168-151.296V586.112H281.024z m215.04-84.48h-215.04a215.232 215.232 0 0 1-215.04-215.04 215.232 215.232 0 0 1 215.04-214.912A215.232 215.232 0 0 1 496 286.592v215.04h0.128z m-215.04-366.08a151.296 151.296 0 0 0-151.232 151.04 151.424 151.424 0 0 0 151.232 151.232h151.168V286.72a151.296 151.296 0 0 0-151.168-151.232z" p-id="38742"></path></svg>